<?xml version="1.0" encoding="UTF-8"?><svg id="a" xmlns="http://www.w3.org/2000/svg" xmlns:xlink="http://www.w3.org/1999/xlink" fill="#fdba74" viewBox="0 0 256 256"><defs><pattern id="b" x="0" y="0" width="250" height="250" patternTransform="translate(-256 -256) scale(1.02)" patternUnits="userSpaceOnUse" viewBox="0 0 250 250"><rect x="0" y="0" width="250" height="250" style="fill:none; stroke-width:0px;"/><polygon points="226.04 229.5 226.04 239.61 214.94 239.61 214.94 250.71 204.83 250.71 204.83 229.5 226.04 229.5" style="stroke-width:0px;"/><polygon points="236.15 239.61 236.15 260.82 214.94 260.82 214.94 250.71 226.04 250.71 226.04 239.61 236.15 239.61" style="stroke-width:0px;"/><polygon points="260.67 131.9 253.17 139.41 238.17 124.41 253.17 109.41 260.67 116.91 253.17 124.41 260.67 131.9" style="stroke-width:0px;"/><polygon points="253.17 64.33 242.56 64.33 242.56 43.12 263.77 43.12 263.77 53.73 253.17 53.73 253.17 64.33" style="stroke-width:0px;"/><rect x="49.49" y="109.34" width="21.21" height="21.21" style="stroke-width:0px;"/><rect x="161.45" y="38.13" width="21.21" height="21.21" style="stroke-width:0px;"/><rect x="240.62" y="205.49" width="21.21" height="21.21" style="stroke-width:0px;"/><rect x="214.94" y="81.88" width="21.21" height="21.21" style="stroke-width:0px;"/><rect x="142.77" y="142.61" width="21.21" height="21.21" style="stroke-width:0px;"/><polygon points="91.35 220.49 76.35 205.49 91.35 190.49 106.35 205.49 91.35 220.49" style="stroke-width:0px;"/><rect x="89.08" y="24.61" width="21.21" height="21.21" style="stroke-width:0px;"/><polygon points="127.77 81.88 112.77 66.88 127.77 51.88 142.77 66.88 127.77 81.88" style="stroke-width:0px;"/><polygon points="188.21 193.81 173.22 178.81 188.21 163.82 203.21 178.81 188.21 193.81" style="stroke-width:0px;"/><polygon points="47.79 34.79 32.79 19.79 47.79 4.8 62.79 19.79 47.79 34.79" style="stroke-width:0px;"/><polygon points="104.08 90.59 104.08 101.2 82.87 101.2 82.87 79.99 93.48 79.99 93.48 90.59 104.08 90.59" style="stroke-width:0px;"/><polygon points="10.67 131.9 3.17 139.41 -11.83 124.41 3.17 109.41 10.67 116.91 3.17 124.41 10.67 131.9" style="stroke-width:0px;"/><polygon points="187.7 249.4 187.7 260.01 166.49 260.01 166.49 238.8 177.1 238.8 177.1 249.4 187.7 249.4" style="stroke-width:0px;"/><polygon points="131.41 246.19 124.01 253.8 108.8 239.02 123.58 223.81 131.19 231.2 123.8 238.8 131.41 246.19" style="stroke-width:0px;"/><polygon points="193.62 141.15 183.01 141.33 182.66 120.12 203.87 119.77 204.04 130.38 193.45 130.56 193.62 141.15" style="stroke-width:0px;"/><polygon points="3.17 64.33 -7.44 64.33 -7.44 43.12 13.77 43.12 13.77 53.73 3.17 53.73 3.17 64.33" style="stroke-width:0px;"/><polygon points="123.62 175.09 134.23 175.09 134.23 196.3 113.02 196.3 113.02 185.69 123.62 185.69 123.62 175.09" style="stroke-width:0px;"/><polygon points="78.02 174.34 70.52 181.84 55.52 166.84 70.52 151.84 78.02 159.35 70.53 166.84 78.02 174.34" style="stroke-width:0px;"/><polygon points="130.88 121.49 123.38 113.99 138.38 98.99 153.37 113.99 145.87 121.49 138.38 113.99 130.88 121.49" style="stroke-width:0px;"/><polygon points="74.28 258.75 66.77 251.25 81.77 236.25 96.77 251.25 89.27 258.75 81.77 251.26 74.28 258.75" style="stroke-width:0px;"/><polygon points="209.32 46.47 201.81 38.96 216.81 23.97 231.81 38.96 224.31 46.47 216.81 38.97 209.32 46.47" style="stroke-width:0px;"/><polygon points="52.79 50.62 60.29 43.12 75.29 58.11 60.29 73.11 52.79 65.61 60.28 58.11 52.79 50.62" style="stroke-width:0px;"/><polygon points="2.22 248.01 9.73 240.51 24.72 255.5 9.73 270.5 2.22 263 9.72 255.5 2.22 248.01" style="stroke-width:0px;"/><polygon points="207.49 190.93 214.99 183.43 229.99 198.43 214.99 213.43 207.49 205.92 214.99 198.43 207.49 190.93" style="stroke-width:0px;"/><polygon points="130.4 17.12 137.9 9.61 152.9 24.61 137.9 39.61 130.4 32.11 137.9 24.61 130.4 17.12" style="stroke-width:0px;"/><polygon points="216.16 141.32 223.67 133.82 238.66 148.82 223.67 163.82 216.16 156.32 223.66 148.82 216.16 141.32" style="stroke-width:0px;"/><polygon points="108.8 126.33 108.8 136.45 97.7 136.45 97.7 147.54 87.59 147.54 87.59 126.33 108.8 126.33" style="stroke-width:0px;"/><polygon points="118.91 136.45 118.91 157.65 97.7 157.65 97.7 147.54 108.8 147.54 108.8 136.45 118.91 136.45" style="stroke-width:0px;"/><polygon points="53.34 202.82 53.34 212.93 42.24 212.93 42.24 224.03 32.13 224.03 32.13 202.82 53.34 202.82" style="stroke-width:0px;"/><polygon points="63.45 212.93 63.45 234.14 42.24 234.14 42.24 224.03 53.34 224.03 53.34 212.93 63.45 212.93" style="stroke-width:0px;"/><polygon points="226.04 -20.5 226.04 -10.39 214.94 -10.39 214.94 .71 204.83 .71 204.83 -20.5 226.04 -20.5" style="stroke-width:0px;"/><polygon points="236.15 -10.39 236.15 10.82 214.94 10.82 214.94 .71 226.04 .71 226.04 -10.39 236.15 -10.39" style="stroke-width:0px;"/><polygon points="198.32 95.49 188.21 95.49 188.21 84.4 177.11 84.4 177.11 74.28 198.32 74.28 198.32 95.49" style="stroke-width:0px;"/><polygon points="188.21 105.61 167 105.61 167 84.4 177.11 84.4 177.11 95.49 188.21 95.49 188.21 105.61" style="stroke-width:0px;"/><polygon points="37.32 172.39 27.2 172.39 27.2 161.29 16.11 161.29 16.11 151.18 37.32 151.18 37.32 172.39" style="stroke-width:0px;"/><polygon points="27.2 182.5 5.99 182.5 5.99 161.29 16.11 161.29 16.11 172.39 27.2 172.39 27.2 182.5" style="stroke-width:0px;"/><polygon points="173.21 218.97 163.09 218.97 163.09 207.88 152 207.88 152 197.76 173.21 197.76 173.21 218.97" style="stroke-width:0px;"/><polygon points="163.09 229.09 141.88 229.09 141.88 207.88 152 207.88 152 218.97 163.09 218.97 163.09 229.09" style="stroke-width:0px;"/><polygon points="40.55 80.04 33.4 87.19 25.56 79.35 17.71 87.19 10.56 80.04 25.56 65.05 40.55 80.04" style="stroke-width:0px;"/><polygon points="40.55 94.34 25.56 109.34 10.56 94.34 17.71 87.19 25.56 95.04 33.4 87.19 40.55 94.34" style="stroke-width:0px;"/><rect x="-9.38" y="205.49" width="21.21" height="21.21" style="stroke-width:0px;"/><polygon points="187.7 -.6 187.7 10.01 166.49 10.01 166.49 -11.2 177.1 -11.2 177.1 -.6 187.7 -.6" style="stroke-width:0px;"/><polygon points="131.41 -3.81 124.01 3.8 108.8 -10.98 123.58 -26.19 131.19 -18.8 123.8 -11.2 131.41 -3.81" style="stroke-width:0px;"/><polygon points="74.28 8.75 66.77 1.25 81.77 -13.75 96.77 1.25 89.27 8.75 81.77 1.26 74.28 8.75" style="stroke-width:0px;"/><polygon points="2.22 -1.99 9.73 -9.49 24.72 5.5 9.73 20.5 2.22 13 9.72 5.5 2.22 -1.99" style="stroke-width:0px;"/></pattern></defs><rect width="256" height="256" style="fill:url(#b); stroke-width:0px;"/></svg>