<?xml version="1.0" encoding="UTF-8"?><svg id="a" fill="#fdba74" xmlns="http://www.w3.org/2000/svg" xmlns:xlink="http://www.w3.org/1999/xlink" viewBox="0 0 256 256"><defs><pattern id="b" x="0" y="0" width="400" height="400" patternTransform="translate(-2816 -12544) scale(.64 -.64)" patternUnits="userSpaceOnUse" viewBox="0 0 400 400"><rect width="400" height="400" style="fill:none; stroke-width:0px;"/><polygon points="211.56 200 224.07 187.49 212.51 175.93 200 188.44 187.49 175.93 175.93 187.49 188.44 200 175.93 212.51 187.49 224.07 200 211.56 212.51 224.07 224.07 212.51 211.56 200" style="fill:none; stroke-width:0px;"/><polygon points="188.44 100 175.93 112.51 187.49 124.07 200 111.56 212.51 124.07 224.07 112.51 211.56 100 224.07 87.49 212.51 75.93 200 88.44 187.49 75.93 175.93 87.49 188.44 100" style="fill:none; stroke-width:0px;"/><polygon points="211.56 300 224.07 287.49 212.51 275.93 200 288.44 187.49 275.93 175.93 287.49 188.44 300 175.93 312.51 187.49 324.07 200 311.56 212.51 324.07 224.07 312.51 211.56 300" style="fill:none; stroke-width:0px;"/><polygon points="237.49 74.07 250 61.56 262.51 74.07 274.07 62.51 261.56 50 274.07 37.49 262.51 25.93 250 38.44 237.49 25.93 225.93 37.49 238.44 50 225.93 62.51 237.49 74.07" style="fill:none; stroke-width:0px;"/><polygon points="288.44 100 275.93 112.51 287.49 124.07 300 111.56 312.51 124.07 324.07 112.51 311.56 100 324.07 87.49 312.51 75.93 300 88.44 287.49 75.93 275.93 87.49 288.44 100" style="fill:none; stroke-width:0px;"/><polygon points="262.51 325.93 250 338.44 237.49 325.93 225.93 337.49 238.44 350 225.93 362.51 237.49 374.07 250 361.56 262.51 374.07 274.07 362.51 261.56 350 274.07 337.49 262.51 325.93" style="fill:none; stroke-width:0px;"/><polygon points="237.49 174.07 250 161.56 262.51 174.07 274.07 162.51 261.56 150 274.07 137.49 262.51 125.93 250 138.44 237.49 125.93 225.93 137.49 238.44 150 225.93 162.51 237.49 174.07" style="fill:none; stroke-width:0px;"/><polygon points="162.51 325.93 150 338.44 137.49 325.93 125.93 337.49 138.44 350 125.93 362.51 137.49 374.07 150 361.56 162.51 374.07 174.07 362.51 161.56 350 174.07 337.49 162.51 325.93" style="fill:none; stroke-width:0px;"/><polygon points="62.51 325.93 50 338.44 37.49 325.93 25.93 337.49 38.44 350 25.93 362.51 37.49 374.07 50 361.56 62.51 374.07 74.07 362.51 61.56 350 74.07 337.49 62.51 325.93" style="fill:none; stroke-width:0px;"/><polygon points="137.49 174.07 150 161.56 162.51 174.07 174.07 162.51 161.56 150 174.07 137.49 162.51 125.93 150 138.44 137.49 125.93 125.93 137.49 138.44 150 125.93 162.51 137.49 174.07" style="fill:none; stroke-width:0px;"/><polygon points="88.44 100 75.93 112.51 87.49 124.07 100 111.56 112.51 124.07 124.07 112.51 111.56 100 124.07 87.49 112.51 75.93 100 88.44 87.49 75.93 75.93 87.49 88.44 100" style="fill:none; stroke-width:0px;"/><polygon points="37.49 174.07 50 161.56 62.51 174.07 74.07 162.51 61.56 150 74.07 137.49 62.51 125.93 50 138.44 37.49 125.93 25.93 137.49 38.44 150 25.93 162.51 37.49 174.07" style="fill:none; stroke-width:0px;"/><polygon points="137.49 74.07 150 61.56 162.51 74.07 174.07 62.51 161.56 50 174.07 37.49 162.51 25.93 150 38.44 137.49 25.93 125.93 37.49 138.44 50 125.93 62.51 137.49 74.07" style="fill:none; stroke-width:0px;"/><polygon points="111.56 300 124.07 287.49 112.51 275.93 100 288.44 87.49 275.93 75.93 287.49 88.44 300 75.93 312.51 87.49 324.07 100 311.56 112.51 324.07 124.07 312.51 111.56 300" style="fill:none; stroke-width:0px;"/><polygon points="311.56 300 324.07 287.49 312.51 275.93 300 288.44 287.49 275.93 275.93 287.49 288.44 300 275.93 312.51 287.49 324.07 300 311.56 312.51 324.07 324.07 312.51 311.56 300" style="fill:none; stroke-width:0px;"/><polygon points="162.51 225.93 150 238.44 137.49 225.93 125.93 237.49 138.44 250 125.93 262.51 137.49 274.07 150 261.56 162.51 274.07 174.07 262.51 161.56 250 174.07 237.49 162.51 225.93" style="fill:none; stroke-width:0px;"/><polygon points="362.51 225.93 350 238.44 337.49 225.93 325.93 237.49 338.44 250 325.93 262.51 337.49 274.07 350 261.56 362.51 274.07 374.07 262.51 361.56 250 374.07 237.49 362.51 225.93" style="fill:none; stroke-width:0px;"/><polygon points="62.51 225.93 50 238.44 37.49 225.93 25.93 237.49 38.44 250 25.93 262.51 37.49 274.07 50 261.56 62.51 274.07 74.07 262.51 61.56 250 74.07 237.49 62.51 225.93" style="fill:none; stroke-width:0px;"/><polygon points="311.56 200 324.07 187.49 312.51 175.93 300 188.44 287.49 175.93 275.93 187.49 288.44 200 275.93 212.51 287.49 224.07 300 211.56 312.51 224.07 324.07 212.51 311.56 200" style="fill:none; stroke-width:0px;"/><polygon points="111.56 200 124.07 187.49 112.51 175.93 100 188.44 87.49 175.93 75.93 187.49 88.44 200 75.93 212.51 87.49 224.07 100 211.56 112.51 224.07 124.07 212.51 111.56 200" style="fill:none; stroke-width:0px;"/><polygon points="37.49 74.07 50 61.56 62.51 74.07 74.07 62.51 61.56 50 74.07 37.49 62.51 25.93 50 38.44 37.49 25.93 25.93 37.49 38.44 50 25.93 62.51 37.49 74.07" style="fill:none; stroke-width:0px;"/><polygon points="362.51 325.93 350 338.44 337.49 325.93 325.93 337.49 338.44 350 325.93 362.51 337.49 374.07 350 361.56 362.51 374.07 374.07 362.51 361.56 350 374.07 337.49 362.51 325.93" style="fill:none; stroke-width:0px;"/><polygon points="337.49 74.07 350 61.56 362.51 74.07 374.07 62.51 361.56 50 374.07 37.49 362.51 25.93 350 38.44 337.49 25.93 325.93 37.49 338.44 50 325.93 62.51 337.49 74.07" style="fill:none; stroke-width:0px;"/><polygon points="262.51 225.93 250 238.44 237.49 225.93 225.93 237.49 238.44 250 225.93 262.51 237.49 274.07 250 261.56 262.51 274.07 274.07 262.51 261.56 250 274.07 237.49 262.51 225.93" style="fill:none; stroke-width:0px;"/><polygon points="337.49 174.07 350 161.56 362.51 174.07 374.07 162.51 361.56 150 374.07 137.49 362.51 125.93 350 138.44 337.49 125.93 325.93 137.49 338.44 150 325.93 162.51 337.49 174.07" style="fill:none; stroke-width:0px;"/><polygon points="24.07 12.51 12.51 24.07 0 11.56 0 17.21 12.51 29.72 29.72 12.51 17.21 0 11.56 0 24.07 12.51" style="stroke-width:0px;"/><path d="M20.28,62.51l12.51-12.51-12.51-12.51,17.21-17.21,12.51,12.51,12.51-12.51,17.21,17.21-12.51,12.51,12.51,12.51-17.21,17.21-12.51-12.51-12.51,12.51-17.21-17.21ZM38.44,50l-12.51,12.51,11.56,11.56,12.51-12.51,12.51,12.51,11.56-11.56-12.51-12.51,12.51-12.51-11.56-11.56-12.51,12.51-12.51-12.51-11.56,11.56,12.51,12.51Z" style="stroke-width:0px;"/><polygon points="87.49 29.72 100 17.21 112.51 29.72 129.72 12.51 117.21 0 111.56 0 124.07 12.51 112.51 24.07 100 11.56 87.49 24.07 75.93 12.51 88.44 0 82.79 0 70.28 12.51 87.49 29.72" style="stroke-width:0px;"/><path d="M120.28,62.51l12.51-12.51-12.51-12.51,17.21-17.21,12.51,12.51,12.51-12.51,17.21,17.21-12.51,12.51,12.51,12.51-17.21,17.21-12.51-12.51-12.51,12.51-17.21-17.21ZM138.44,50l-12.51,12.51,11.56,11.56,12.51-12.51,12.51,12.51,11.56-11.56-12.51-12.51,12.51-12.51-11.56-11.56-12.51,12.51-12.51-12.51-11.56,11.56,12.51,12.51Z" style="stroke-width:0px;"/><polygon points="68.94 0 31.06 0 50 18.94 68.94 0" style="stroke-width:0px;"/><polygon points="187.49 29.72 200 17.21 212.51 29.72 229.72 12.51 217.21 0 211.56 0 224.07 12.51 212.51 24.07 200 11.56 187.49 24.07 175.93 12.51 188.44 0 182.79 0 170.28 12.51 187.49 29.72" style="stroke-width:0px;"/><path d="M220.28,62.51l12.51-12.51-12.51-12.51,17.21-17.21,12.51,12.51,12.51-12.51,17.21,17.21-12.51,12.51,12.51,12.51-17.21,17.21-12.51-12.51-12.51,12.51-17.21-17.21ZM238.44,50l-12.51,12.51,11.56,11.56,12.51-12.51,12.51,12.51,11.56-11.56-12.51-12.51,12.51-12.51-11.56-11.56-12.51,12.51-12.51-12.51-11.56,11.56,12.51,12.51Z" style="stroke-width:0px;"/><polygon points="168.94 0 131.06 0 150 18.94 168.94 0" style="stroke-width:0px;"/><polygon points="287.49 29.72 300 17.21 312.51 29.72 329.72 12.51 317.21 0 311.56 0 324.07 12.51 312.51 24.07 300 11.56 287.49 24.07 275.93 12.51 288.44 0 282.79 0 270.28 12.51 287.49 29.72" style="stroke-width:0px;"/><path d="M320.28,62.51l12.51-12.51-12.51-12.51,17.21-17.21,12.51,12.51,12.51-12.51,17.21,17.21-12.51,12.51,12.51,12.51-17.21,17.21-12.51-12.51-12.51,12.51-17.21-17.21ZM338.44,50l-12.51,12.51,11.56,11.56,12.51-12.51,12.51,12.51,11.56-11.56-12.51-12.51,12.51-12.51-11.56-11.56-12.51,12.51-12.51-12.51-11.56,11.56,12.51,12.51Z" style="stroke-width:0px;"/><polygon points="268.94 0 231.06 0 250 18.94 268.94 0" style="stroke-width:0px;"/><polygon points="387.49 29.72 400 17.21 400 11.56 387.49 24.07 375.93 12.51 388.44 0 382.79 0 370.28 12.51 387.49 29.72" style="stroke-width:0px;"/><polygon points="368.94 0 331.06 0 350 18.94 368.94 0" style="stroke-width:0px;"/><polygon points="400 68.94 400 31.06 381.06 50 400 68.94" style="stroke-width:0px;"/><polygon points="0 82.79 0 88.44 12.51 75.93 24.07 87.49 11.56 100 24.07 112.51 12.51 124.07 0 111.56 0 117.21 12.51 129.72 29.72 112.51 17.21 100 29.72 87.49 12.51 70.28 0 82.79" style="stroke-width:0px;"/><polygon points="0 68.94 18.94 50 0 31.06 0 68.94" style="stroke-width:0px;"/><path d="M70.28,87.49l17.21-17.21,12.51,12.51,12.51-12.51,17.21,17.21-12.51,12.51,12.51,12.51-17.21,17.21-12.51-12.51-12.51,12.51-17.21-17.21,12.51-12.51-12.51-12.51ZM87.49,75.93l-11.56,11.56,12.51,12.51-12.51,12.51,11.56,11.56,12.51-12.51,12.51,12.51,11.56-11.56-12.51-12.51,12.51-12.51-11.56-11.56-12.51,12.51-12.51-12.51Z" style="stroke-width:0px;"/><path d="M120.28,162.51l12.51-12.51-12.51-12.51,17.21-17.21,12.51,12.51,12.51-12.51,17.21,17.21-12.51,12.51,12.51,12.51-17.21,17.21-12.51-12.51-12.51,12.51-17.21-17.21ZM138.44,150l-12.51,12.51,11.56,11.56,12.51-12.51,12.51,12.51,11.56-11.56-12.51-12.51,12.51-12.51-11.56-11.56-12.51,12.51-12.51-12.51-11.56,11.56,12.51,12.51Z" style="stroke-width:0px;"/><polygon points="68.94 100 50 81.06 31.06 100 50 118.94 68.94 100" style="stroke-width:0px;"/><polygon points="118.94 50 100 31.06 81.06 50 100 68.94 118.94 50" style="stroke-width:0px;"/><path d="M170.28,87.49l17.21-17.21,12.51,12.51,12.51-12.51,17.21,17.21-12.51,12.51,12.51,12.51-17.21,17.21-12.51-12.51-12.51,12.51-17.21-17.21,12.51-12.51-12.51-12.51ZM187.49,75.93l-11.56,11.56,12.51,12.51-12.51,12.51,11.56,11.56,12.51-12.51,12.51,12.51,11.56-11.56-12.51-12.51,12.51-12.51-11.56-11.56-12.51,12.51-12.51-12.51Z" style="stroke-width:0px;"/><path d="M220.28,162.51l12.51-12.51-12.51-12.51,17.21-17.21,12.51,12.51,12.51-12.51,17.21,17.21-12.51,12.51,12.51,12.51-17.21,17.21-12.51-12.51-12.51,12.51-17.21-17.21ZM238.44,150l-12.51,12.51,11.56,11.56,12.51-12.51,12.51,12.51,11.56-11.56-12.51-12.51,12.51-12.51-11.56-11.56-12.51,12.51-12.51-12.51-11.56,11.56,12.51,12.51Z" style="stroke-width:0px;"/><polygon points="168.94 100 150 81.06 131.06 100 150 118.94 168.94 100" style="stroke-width:0px;"/><polygon points="218.94 50 200 31.06 181.06 50 200 68.94 218.94 50" style="stroke-width:0px;"/><path d="M270.28,87.49l17.21-17.21,12.51,12.51,12.51-12.51,17.21,17.21-12.51,12.51,12.51,12.51-17.21,17.21-12.51-12.51-12.51,12.51-17.21-17.21,12.51-12.51-12.51-12.51ZM287.49,75.93l-11.56,11.56,12.51,12.51-12.51,12.51,11.56,11.56,12.51-12.51,12.51,12.51,11.56-11.56-12.51-12.51,12.51-12.51-11.56-11.56-12.51,12.51-12.51-12.51Z" style="stroke-width:0px;"/><polygon points="368.94 100 350 81.06 331.06 100 350 118.94 368.94 100" style="stroke-width:0px;"/><polygon points="268.94 100 250 81.06 231.06 100 250 118.94 268.94 100" style="stroke-width:0px;"/><polygon points="318.94 50 300 31.06 281.06 50 300 68.94 318.94 50" style="stroke-width:0px;"/><polygon points="318.94 150 300 131.06 281.06 150 300 168.94 318.94 150" style="stroke-width:0px;"/><polygon points="382.79 100 370.28 112.51 387.49 129.72 400 117.21 400 111.56 387.49 124.07 375.93 112.51 388.44 100 375.93 87.49 387.49 75.93 400 88.44 400 82.79 387.49 70.28 370.28 87.49 382.79 100" style="stroke-width:0px;"/><path d="M320.28,162.51l12.51-12.51-12.51-12.51,17.21-17.21,12.51,12.51,12.51-12.51,17.21,17.21-12.51,12.51,12.51,12.51-17.21,17.21-12.51-12.51-12.51,12.51-17.21-17.21ZM338.44,150l-12.51,12.51,11.56,11.56,12.51-12.51,12.51,12.51,11.56-11.56-12.51-12.51,12.51-12.51-11.56-11.56-12.51,12.51-12.51-12.51-11.56,11.56,12.51,12.51Z" style="stroke-width:0px;"/><polygon points="400 168.94 400 131.06 381.06 150 400 168.94" style="stroke-width:0px;"/><polygon points="17.21 200 29.72 187.49 12.51 170.28 0 182.79 0 188.44 12.51 175.93 24.07 187.49 11.56 200 24.07 212.51 12.51 224.07 0 211.56 0 217.21 12.51 229.72 29.72 212.51 17.21 200" style="stroke-width:0px;"/><path d="M20.28,162.51l12.51-12.51-12.51-12.51,17.21-17.21,12.51,12.51,12.51-12.51,17.21,17.21-12.51,12.51,12.51,12.51-17.21,17.21-12.51-12.51-12.51,12.51-17.21-17.21ZM38.44,150l-12.51,12.51,11.56,11.56,12.51-12.51,12.51,12.51,11.56-11.56-12.51-12.51,12.51-12.51-11.56-11.56-12.51,12.51-12.51-12.51-11.56,11.56,12.51,12.51Z" style="stroke-width:0px;"/><polygon points="0 131.06 0 168.94 18.94 150 0 131.06" style="stroke-width:0px;"/><path d="M129.72,212.51l-17.21,17.21-12.51-12.51-12.51,12.51-17.21-17.21,12.51-12.51-12.51-12.51,17.21-17.21,12.51,12.51,12.51-12.51,17.21,17.21-12.51,12.51,12.51,12.51ZM112.51,224.07l11.56-11.56-12.51-12.51,12.51-12.51-11.56-11.56-12.51,12.51-12.51-12.51-11.56,11.56,12.51,12.51-12.51,12.51,11.56,11.56,12.51-12.51,12.51,12.51Z" style="stroke-width:0px;"/><polygon points="131.06 200 150 218.94 168.94 200 150 181.06 131.06 200" style="stroke-width:0px;"/><polygon points="31.06 200 50 218.94 68.94 200 50 181.06 31.06 200" style="stroke-width:0px;"/><polygon points="118.94 150 100 131.06 81.06 150 100 168.94 118.94 150" style="stroke-width:0px;"/><polygon points="81.06 250 100 268.94 118.94 250 100 231.06 81.06 250" style="stroke-width:0px;"/><path d="M229.72,212.51l-17.21,17.21-12.51-12.51-12.51,12.51-17.21-17.21,12.51-12.51-12.51-12.51,17.21-17.21,12.51,12.51,12.51-12.51,17.21,17.21-12.51,12.51,12.51,12.51ZM212.51,224.07l11.56-11.56-12.51-12.51,12.51-12.51-11.56-11.56-12.51,12.51-12.51-12.51-11.56,11.56,12.51,12.51-12.51,12.51,11.56,11.56,12.51-12.51,12.51,12.51Z" style="stroke-width:0px;"/><polygon points="231.06 200 250 218.94 268.94 200 250 181.06 231.06 200" style="stroke-width:0px;"/><polygon points="218.94 150 200 131.06 181.06 150 200 168.94 218.94 150" style="stroke-width:0px;"/><polygon points="181.06 250 200 268.94 218.94 250 200 231.06 181.06 250" style="stroke-width:0px;"/><path d="M329.72,212.51l-17.21,17.21-12.51-12.51-12.51,12.51-17.21-17.21,12.51-12.51-12.51-12.51,17.21-17.21,12.51,12.51,12.51-12.51,17.21,17.21-12.51,12.51,12.51,12.51ZM312.51,224.07l11.56-11.56-12.51-12.51,12.51-12.51-11.56-11.56-12.51,12.51-12.51-12.51-11.56,11.56,12.51,12.51-12.51,12.51,11.56,11.56,12.51-12.51,12.51,12.51Z" style="stroke-width:0px;"/><polygon points="331.06 200 350 218.94 368.94 200 350 181.06 331.06 200" style="stroke-width:0px;"/><polygon points="281.06 250 300 268.94 318.94 250 300 231.06 281.06 250" style="stroke-width:0px;"/><polygon points="370.28 187.49 382.79 200 370.28 212.51 387.49 229.72 400 217.21 400 211.56 387.49 224.07 375.93 212.51 388.44 200 375.93 187.49 387.49 175.93 400 188.44 400 182.79 387.49 170.28 370.28 187.49" style="stroke-width:0px;"/><path d="M379.72,237.49l-12.51,12.51,12.51,12.51-17.21,17.21-12.51-12.51-12.51,12.51-17.21-17.21,12.51-12.51-12.51-12.51,17.21-17.21,12.51,12.51,12.51-12.51,17.21,17.21ZM361.56,250l12.51-12.51-11.56-11.56-12.51,12.51-12.51-12.51-11.56,11.56,12.51,12.51-12.51,12.51,11.56,11.56,12.51-12.51,12.51,12.51,11.56-11.56-12.51-12.51Z" style="stroke-width:0px;"/><polygon points="400 268.94 400 231.06 381.06 250 400 268.94" style="stroke-width:0px;"/><polygon points="17.21 300 29.72 287.49 12.51 270.28 0 282.79 0 288.44 12.51 275.93 24.07 287.49 11.56 300 24.07 312.51 12.51 324.07 0 311.56 0 317.21 12.51 329.72 29.72 312.51 17.21 300" style="stroke-width:0px;"/><polygon points="31.06 300 50 318.94 68.94 300 50 281.06 31.06 300" style="stroke-width:0px;"/><polygon points="0 231.06 0 268.94 18.94 250 0 231.06" style="stroke-width:0px;"/><path d="M129.72,312.51l-17.21,17.21-12.51-12.51-12.51,12.51-17.21-17.21,12.51-12.51-12.51-12.51,17.21-17.21,12.51,12.51,12.51-12.51,17.21,17.21-12.51,12.51,12.51,12.51ZM112.51,324.07l11.56-11.56-12.51-12.51,12.51-12.51-11.56-11.56-12.51,12.51-12.51-12.51-11.56,11.56,12.51,12.51-12.51,12.51,11.56,11.56,12.51-12.51,12.51,12.51Z" style="stroke-width:0px;"/><path d="M79.72,237.49l-12.51,12.51,12.51,12.51-17.21,17.21-12.51-12.51-12.51,12.51-17.21-17.21,12.51-12.51-12.51-12.51,17.21-17.21,12.51,12.51,12.51-12.51,17.21,17.21ZM61.56,250l12.51-12.51-11.56-11.56-12.51,12.51-12.51-12.51-11.56,11.56,12.51,12.51-12.51,12.51,11.56,11.56,12.51-12.51,12.51,12.51,11.56-11.56-12.51-12.51Z" style="stroke-width:0px;"/><polygon points="131.06 300 150 318.94 168.94 300 150 281.06 131.06 300" style="stroke-width:0px;"/><polygon points="81.06 350 100 368.94 118.94 350 100 331.06 81.06 350" style="stroke-width:0px;"/><path d="M229.72,312.51l-17.21,17.21-12.51-12.51-12.51,12.51-17.21-17.21,12.51-12.51-12.51-12.51,17.21-17.21,12.51,12.51,12.51-12.51,17.21,17.21-12.51,12.51,12.51,12.51ZM212.51,324.07l11.56-11.56-12.51-12.51,12.51-12.51-11.56-11.56-12.51,12.51-12.51-12.51-11.56,11.56,12.51,12.51-12.51,12.51,11.56,11.56,12.51-12.51,12.51,12.51Z" style="stroke-width:0px;"/><path d="M179.72,237.49l-12.51,12.51,12.51,12.51-17.21,17.21-12.51-12.51-12.51,12.51-17.21-17.21,12.51-12.51-12.51-12.51,17.21-17.21,12.51,12.51,12.51-12.51,17.21,17.21ZM161.56,250l12.51-12.51-11.56-11.56-12.51,12.51-12.51-12.51-11.56,11.56,12.51,12.51-12.51,12.51,11.56,11.56,12.51-12.51,12.51,12.51,11.56-11.56-12.51-12.51Z" style="stroke-width:0px;"/><polygon points="231.06 300 250 318.94 268.94 300 250 281.06 231.06 300" style="stroke-width:0px;"/><polygon points="181.06 350 200 368.94 218.94 350 200 331.06 181.06 350" style="stroke-width:0px;"/><path d="M329.72,312.51l-17.21,17.21-12.51-12.51-12.51,12.51-17.21-17.21,12.51-12.51-12.51-12.51,17.21-17.21,12.51,12.51,12.51-12.51,17.21,17.21-12.51,12.51,12.51,12.51ZM312.51,324.07l11.56-11.56-12.51-12.51,12.51-12.51-11.56-11.56-12.51,12.51-12.51-12.51-11.56,11.56,12.51,12.51-12.51,12.51,11.56,11.56,12.51-12.51,12.51,12.51Z" style="stroke-width:0px;"/><path d="M279.72,237.49l-12.51,12.51,12.51,12.51-17.21,17.21-12.51-12.51-12.51,12.51-17.21-17.21,12.51-12.51-12.51-12.51,17.21-17.21,12.51,12.51,12.51-12.51,17.21,17.21ZM261.56,250l12.51-12.51-11.56-11.56-12.51,12.51-12.51-12.51-11.56,11.56,12.51,12.51-12.51,12.51,11.56,11.56,12.51-12.51,12.51,12.51,11.56-11.56-12.51-12.51Z" style="stroke-width:0px;"/><polygon points="331.06 300 350 318.94 368.94 300 350 281.06 331.06 300" style="stroke-width:0px;"/><polygon points="281.06 350 300 368.94 318.94 350 300 331.06 281.06 350" style="stroke-width:0px;"/><polygon points="400 317.21 400 311.56 387.49 324.07 375.93 312.51 388.44 300 375.93 287.49 387.49 275.93 400 288.44 400 282.79 387.49 270.28 370.28 287.49 382.79 300 370.28 312.51 387.49 329.72 400 317.21" style="stroke-width:0px;"/><polygon points="400 331.06 381.06 350 400 368.94 400 331.06" style="stroke-width:0px;"/><polygon points="12.51 370.28 0 382.79 0 388.44 12.51 375.93 24.07 387.49 11.56 400 17.21 400 29.72 387.49 12.51 370.28" style="stroke-width:0px;"/><polygon points="31.06 400 68.94 400 50 381.06 31.06 400" style="stroke-width:0px;"/><polygon points="0 331.06 0 368.94 18.94 350 0 331.06" style="stroke-width:0px;"/><polygon points="112.51 370.28 100 382.79 87.49 370.28 70.28 387.49 82.79 400 88.44 400 75.93 387.49 87.49 375.93 100 388.44 112.51 375.93 124.07 387.49 111.56 400 117.21 400 129.72 387.49 112.51 370.28" style="stroke-width:0px;"/><path d="M79.72,337.49l-12.51,12.51,12.51,12.51-17.21,17.21-12.51-12.51-12.51,12.51-17.21-17.21,12.51-12.51-12.51-12.51,17.21-17.21,12.51,12.51,12.51-12.51,17.21,17.21ZM61.56,350l12.51-12.51-11.56-11.56-12.51,12.51-12.51-12.51-11.56,11.56,12.51,12.51-12.51,12.51,11.56,11.56,12.51-12.51,12.51,12.51,11.56-11.56-12.51-12.51Z" style="stroke-width:0px;"/><polygon points="131.06 400 168.94 400 150 381.06 131.06 400" style="stroke-width:0px;"/><polygon points="212.51 370.28 200 382.79 187.49 370.28 170.28 387.49 182.79 400 188.44 400 175.93 387.49 187.49 375.93 200 388.44 212.51 375.93 224.07 387.49 211.56 400 217.21 400 229.72 387.49 212.51 370.28" style="stroke-width:0px;"/><path d="M179.72,337.49l-12.51,12.51,12.51,12.51-17.21,17.21-12.51-12.51-12.51,12.51-17.21-17.21,12.51-12.51-12.51-12.51,17.21-17.21,12.51,12.51,12.51-12.51,17.21,17.21ZM161.56,350l12.51-12.51-11.56-11.56-12.51,12.51-12.51-12.51-11.56,11.56,12.51,12.51-12.51,12.51,11.56,11.56,12.51-12.51,12.51,12.51,11.56-11.56-12.51-12.51Z" style="stroke-width:0px;"/><polygon points="231.06 400 268.94 400 250 381.06 231.06 400" style="stroke-width:0px;"/><polygon points="312.51 370.28 300 382.79 287.49 370.28 270.28 387.49 282.79 400 288.44 400 275.93 387.49 287.49 375.93 300 388.44 312.51 375.93 324.07 387.49 311.56 400 317.21 400 329.72 387.49 312.51 370.28" style="stroke-width:0px;"/><path d="M279.72,337.49l-12.51,12.51,12.51,12.51-17.21,17.21-12.51-12.51-12.51,12.51-17.21-17.21,12.51-12.51-12.51-12.51,17.21-17.21,12.51,12.51,12.51-12.51,17.21,17.21ZM261.56,350l12.51-12.51-11.56-11.56-12.51,12.51-12.51-12.51-11.56,11.56,12.51,12.51-12.51,12.51,11.56,11.56,12.51-12.51,12.51,12.51,11.56-11.56-12.51-12.51Z" style="stroke-width:0px;"/><polygon points="331.06 400 368.94 400 350 381.06 331.06 400" style="stroke-width:0px;"/><polygon points="375.93 387.49 387.49 375.93 400 388.44 400 382.79 387.49 370.28 370.28 387.49 382.79 400 388.44 400 375.93 387.49" style="stroke-width:0px;"/><path d="M379.72,337.49l-12.51,12.51,12.51,12.51-17.21,17.21-12.51-12.51-12.51,12.51-17.21-17.21,12.51-12.51-12.51-12.51,17.21-17.21,12.51,12.51,12.51-12.51,17.21,17.21ZM361.56,350l12.51-12.51-11.56-11.56-12.51,12.51-12.51-12.51-11.56,11.56,12.51,12.51-12.51,12.51,11.56,11.56,12.51-12.51,12.51,12.51,11.56-11.56-12.51-12.51Z" style="stroke-width:0px;"/></pattern></defs><rect width="256" height="256" style="fill:url(#b); stroke-width:0px;"/></svg>