<?xml version="1.0" encoding="UTF-8"?><svg id="a" xmlns="http://www.w3.org/2000/svg" fill="#ffedd5" viewBox="0 0 256 256"><g id="b"><path d="M58.6,42.67c-10.62,0-4.6,11.33,18.06,33.99l-33.99-33.99h15.93ZM58.6,42.67c17.83,0,26.74,11.33,26.74,33.99v-33.99h-26.74ZM85.33,76.66c0,5.78-2.89,5.78-8.68,0l8.68,8.68v-8.68ZM58.6,42.67c9.96,15.11,18.87,26.44,26.74,33.99-7.87-7.55-10.76-7.55-8.68,0-2.09-7.55-8.11-18.88-18.06-33.99Z"/></g><g id="c"><path d="M58.6,42.67c-10.62,0-4.6-11.33,18.06-33.99l-33.99,33.99h15.93ZM58.6,42.67c17.83,0,26.74-11.33,26.74-33.99v33.99h-26.74ZM85.33,8.68c0-5.78-2.89-5.78-8.68,0L85.33,0v8.68ZM58.6,42.67c9.96-15.11,18.87-26.44,26.74-33.99-7.87,7.55-10.76,7.55-8.68,0-2.09,7.55-8.11,18.88-18.06,33.99Z"/></g><g id="d"><path d="M42.67,58.6c0-10.62-11.33-4.6-33.99,18.06l33.99-33.99v15.93ZM42.67,58.6c0,17.83-11.33,26.74-33.99,26.74h33.99v-26.74ZM8.68,85.33c-5.78,0-5.78-2.89,0-8.68L0,85.33h8.68ZM42.67,58.6c-15.11,9.96-26.44,18.87-33.99,26.74,7.55-7.87,7.55-10.76,0-8.68,7.55-2.09,18.88-8.11,33.99-18.06Z"/></g><g id="e"><path d="M42.67,58.6c0-10.62,11.33-4.6,33.99,18.06l-33.99-33.99v15.93ZM42.67,58.6c0,17.83,11.33,26.74,33.99,26.74h-33.99v-26.74ZM76.66,85.33c5.78,0,5.78-2.89,0-8.68l8.68,8.68h-8.68ZM42.67,58.6c15.11,9.96,26.44,18.87,33.99,26.74-7.55-7.87-7.55-10.76,0-8.68-7.55-2.09-18.88-8.11-33.99-18.06Z"/></g><g id="f"><path d="M26.74,42.67c10.62,0,4.6-11.33-18.06-33.99l33.99,33.99h-15.93ZM26.74,42.67C8.91,42.67,0,31.34,0,8.68v33.99h26.74ZM0,8.68c0-5.78,2.89-5.78,8.68,0L0,0v8.68ZM26.74,42.67C16.78,27.56,7.87,16.23,0,8.68c7.87,7.55,10.76,7.55,8.68,0,2.09,7.55,8.11,18.88,18.06,33.99Z"/></g><g id="g"><path d="M26.74,42.67c10.62,0,4.6,11.33-18.06,33.99l33.99-33.99h-15.93ZM26.74,42.67C8.91,42.67,0,54,0,76.66v-33.99h26.74ZM0,76.66c0,5.78,2.89,5.78,8.68,0L0,85.33v-8.68ZM26.74,42.67C16.78,57.77,7.87,69.1,0,76.66c7.87-7.55,10.76-7.55,8.68,0,2.09-7.55,8.11-18.88,18.06-33.99Z"/></g><g id="h"><path d="M42.67,26.74c0,10.62,11.33,4.6,33.99-18.06l-33.99,33.99v-15.93ZM42.67,26.74C42.67,8.91,54,0,76.66,0h-33.99v26.74ZM76.66,0c5.78,0,5.78,2.89,0,8.68L85.33,0h-8.68ZM42.67,26.74C57.77,16.78,69.1,7.87,76.66,0c-7.55,7.87-7.55,10.76,0,8.68-7.55,2.09-18.88,8.11-33.99,18.06Z"/></g><g id="i"><path d="M42.67,26.74c0,10.62-11.33,4.6-33.99-18.06l33.99,33.99v-15.93ZM42.67,26.74C42.67,8.91,31.34,0,8.68,0h33.99v26.74ZM8.68,0c-5.78,0-5.78,2.89,0,8.68L0,0h8.68ZM42.67,26.74C27.56,16.78,16.23,7.87,8.68,0c7.55,7.87,7.55,10.76,0,8.68,7.55,2.09,18.88,8.11,33.99,18.06Z"/></g><g id="j"><path d="M58.6,128c-10.62,0-4.6,11.33,18.06,33.99l-33.99-33.99h15.93ZM58.6,128c17.83,0,26.74,11.33,26.74,33.99v-33.99h-26.74ZM85.33,161.99c0,5.78-2.89,5.78-8.68,0l8.68,8.68v-8.68ZM58.6,128c9.96,15.11,18.87,26.44,26.74,33.99-7.87-7.55-10.76-7.55-8.68,0-2.09-7.55-8.11-18.88-18.06-33.99Z"/></g><g id="k"><path d="M58.6,128c-10.62,0-4.6-11.33,18.06-33.99l-33.99,33.99h15.93ZM58.6,128c17.83,0,26.74-11.33,26.74-33.99v33.99h-26.74ZM85.33,94.01c0-5.78-2.89-5.78-8.68,0l8.68-8.68v8.68ZM58.6,128c9.96-15.11,18.87-26.44,26.74-33.99-7.87,7.55-10.76,7.55-8.68,0-2.09,7.55-8.11,18.88-18.06,33.99Z"/></g><g id="l"><path d="M42.67,143.93c0-10.62-11.33-4.6-33.99,18.06l33.99-33.99v15.93ZM42.67,143.93c0,17.83-11.33,26.74-33.99,26.74h33.99v-26.74ZM8.68,170.67c-5.78,0-5.78-2.89,0-8.68l-8.68,8.68h8.68ZM42.67,143.93c-15.11,9.96-26.44,18.87-33.99,26.74,7.55-7.87,7.55-10.76,0-8.68,7.55-2.09,18.88-8.11,33.99-18.06Z"/></g><g id="m"><path d="M42.67,143.93c0-10.62,11.33-4.6,33.99,18.06l-33.99-33.99v15.93ZM42.67,143.93c0,17.83,11.33,26.74,33.99,26.74h-33.99v-26.74ZM76.66,170.67c5.78,0,5.78-2.89,0-8.68l8.68,8.68h-8.68ZM42.67,143.93c15.11,9.96,26.44,18.87,33.99,26.74-7.55-7.87-7.55-10.76,0-8.68-7.55-2.09-18.88-8.11-33.99-18.06Z"/></g><g id="n"><path d="M26.74,128c10.62,0,4.6-11.33-18.06-33.99l33.99,33.99h-15.93ZM26.74,128c-17.83,0-26.74-11.33-26.74-33.99v33.99h26.74ZM0,94.01c0-5.78,2.89-5.78,8.68,0L0,85.33v8.68ZM26.74,128c-9.96-15.11-18.87-26.44-26.74-33.99,7.87,7.55,10.76,7.55,8.68,0,2.09,7.55,8.11,18.88,18.06,33.99Z"/></g><g id="o"><path d="M26.74,128c10.62,0,4.6,11.33-18.06,33.99l33.99-33.99h-15.93ZM26.74,128c-17.83,0-26.74,11.33-26.74,33.99v-33.99h26.74ZM0,161.99c0,5.78,2.89,5.78,8.68,0l-8.68,8.68v-8.68ZM26.74,128c-9.96,15.11-18.87,26.44-26.74,33.99,7.87-7.55,10.76-7.55,8.68,0,2.09-7.55,8.11-18.88,18.06-33.99Z"/></g><g id="p"><path d="M42.67,112.07c0,10.62,11.33,4.6,33.99-18.06l-33.99,33.99v-15.93ZM42.67,112.07c0-17.83,11.33-26.74,33.99-26.74h-33.99v26.74ZM76.66,85.33c5.78,0,5.78,2.89,0,8.68l8.68-8.68h-8.68ZM42.67,112.07c15.11-9.96,26.44-18.87,33.99-26.74-7.55,7.87-7.55,10.76,0,8.68-7.55,2.09-18.88,8.11-33.99,18.06Z"/></g><g id="q"><path d="M42.67,112.07c0,10.62-11.33,4.6-33.99-18.06l33.99,33.99v-15.93ZM42.67,112.07c0-17.83-11.33-26.74-33.99-26.74h33.99v26.74ZM8.68,85.33c-5.78,0-5.78,2.89,0,8.68L0,85.33h8.68ZM42.67,112.07c-15.11-9.96-26.44-18.87-33.99-26.74,7.55,7.87,7.55,10.76,0,8.68,7.55,2.09,18.88,8.11,33.99,18.06Z"/></g><g id="r"><path d="M58.6,213.33c-10.62,0-4.6,11.33,18.06,33.99l-33.99-33.99h15.93ZM58.6,213.33c17.83,0,26.74,11.33,26.74,33.99v-33.99h-26.74ZM85.33,247.32c0,5.78-2.89,5.78-8.68,0l8.68,8.68v-8.68ZM58.6,213.33c9.96,15.11,18.87,26.44,26.74,33.99-7.87-7.55-10.76-7.55-8.68,0-2.09-7.55-8.11-18.88-18.06-33.99Z"/></g><g id="s"><path d="M58.6,213.33c-10.62,0-4.6-11.33,18.06-33.99l-33.99,33.99h15.93ZM58.6,213.33c17.83,0,26.74-11.33,26.74-33.99v33.99h-26.74ZM85.33,179.34c0-5.78-2.89-5.78-8.68,0l8.68-8.68v8.68ZM58.6,213.33c9.96-15.11,18.87-26.44,26.74-33.99-7.87,7.55-10.76,7.55-8.68,0-2.09,7.55-8.11,18.88-18.06,33.99Z"/></g><g id="t"><path d="M42.67,229.26c0-10.62-11.33-4.6-33.99,18.06l33.99-33.99v15.93ZM42.67,229.26c0,17.83-11.33,26.74-33.99,26.74h33.99v-26.74ZM8.68,256c-5.78,0-5.78-2.89,0-8.68l-8.68,8.68h8.68ZM42.67,229.26c-15.11,9.96-26.44,18.87-33.99,26.74,7.55-7.87,7.55-10.76,0-8.68,7.55-2.09,18.88-8.11,33.99-18.06Z"/></g><g id="u"><path d="M42.67,229.26c0-10.62,11.33-4.6,33.99,18.06l-33.99-33.99v15.93ZM42.67,229.26c0,17.83,11.33,26.74,33.99,26.74h-33.99v-26.74ZM76.66,256c5.78,0,5.78-2.89,0-8.68l8.68,8.68h-8.68ZM42.67,229.26c15.11,9.96,26.44,18.87,33.99,26.74-7.55-7.87-7.55-10.76,0-8.68-7.55-2.09-18.88-8.11-33.99-18.06Z"/></g><g id="v"><path d="M26.74,213.33c10.62,0,4.6-11.33-18.06-33.99l33.99,33.99h-15.93ZM26.74,213.33c-17.83,0-26.74-11.33-26.74-33.99v33.99h26.74ZM0,179.34c0-5.78,2.89-5.78,8.68,0l-8.68-8.68v8.68ZM26.74,213.33c-9.96-15.11-18.87-26.44-26.74-33.99,7.87,7.55,10.76,7.55,8.68,0,2.09,7.55,8.11,18.88,18.06,33.99Z"/></g><g id="w"><path d="M26.74,213.33c10.62,0,4.6,11.33-18.06,33.99l33.99-33.99h-15.93ZM26.74,213.33c-17.83,0-26.74,11.33-26.74,33.99v-33.99h26.74ZM0,247.32c0,5.78,2.89,5.78,8.68,0l-8.68,8.68v-8.68ZM26.74,213.33c-9.96,15.11-18.87,26.44-26.74,33.99,7.87-7.55,10.76-7.55,8.68,0,2.09-7.55,8.11-18.88,18.06-33.99Z"/></g><g id="x"><path d="M42.67,197.4c0,10.62,11.33,4.6,33.99-18.06l-33.99,33.99v-15.93ZM42.67,197.4c0-17.83,11.33-26.74,33.99-26.74h-33.99v26.74ZM76.66,170.67c5.78,0,5.78,2.89,0,8.68l8.68-8.68h-8.68ZM42.67,197.4c15.11-9.96,26.44-18.87,33.99-26.74-7.55,7.87-7.55,10.76,0,8.68-7.55,2.09-18.88,8.11-33.99,18.06Z"/></g><g id="y"><path d="M42.67,197.4c0,10.62-11.33,4.6-33.99-18.06l33.99,33.99v-15.93ZM42.67,197.4c0-17.83-11.33-26.74-33.99-26.74h33.99v26.74ZM8.68,170.67c-5.78,0-5.78,2.89,0,8.68l-8.68-8.68h8.68ZM42.67,197.4c-15.11-9.96-26.44-18.87-33.99-26.74,7.55,7.87,7.55,10.76,0,8.68,7.55,2.09,18.88,8.11,33.99,18.06Z"/></g><g id="z"><path d="M143.93,42.67c-10.62,0-4.6,11.33,18.06,33.99l-33.99-33.99h15.93ZM143.93,42.67c17.83,0,26.74,11.33,26.74,33.99v-33.99h-26.74ZM170.67,76.66c0,5.78-2.89,5.78-8.68,0l8.68,8.68v-8.68ZM143.93,42.67c9.96,15.11,18.87,26.44,26.74,33.99-7.87-7.55-10.76-7.55-8.68,0-2.09-7.55-8.11-18.88-18.06-33.99Z"/></g><g id="aa"><path d="M143.93,42.67c-10.62,0-4.6-11.33,18.06-33.99l-33.99,33.99h15.93ZM143.93,42.67c17.83,0,26.74-11.33,26.74-33.99v33.99h-26.74ZM170.67,8.68c0-5.78-2.89-5.78-8.68,0l8.68-8.68v8.68ZM143.93,42.67c9.96-15.11,18.87-26.44,26.74-33.99-7.87,7.55-10.76,7.55-8.68,0-2.09,7.55-8.11,18.88-18.06,33.99Z"/></g><g id="ab"><path d="M128,58.6c0-10.62-11.33-4.6-33.99,18.06l33.99-33.99v15.93ZM128,58.6c0,17.83-11.33,26.74-33.99,26.74h33.99v-26.74ZM94.01,85.33c-5.78,0-5.78-2.89,0-8.68l-8.68,8.68h8.68ZM128,58.6c-15.11,9.96-26.44,18.87-33.99,26.74,7.55-7.87,7.55-10.76,0-8.68,7.55-2.09,18.88-8.11,33.99-18.06Z"/></g><g id="ac"><path d="M128,58.6c0-10.62,11.33-4.6,33.99,18.06l-33.99-33.99v15.93ZM128,58.6c0,17.83,11.33,26.74,33.99,26.74h-33.99v-26.74ZM161.99,85.33c5.78,0,5.78-2.89,0-8.68l8.68,8.68h-8.68ZM128,58.6c15.11,9.96,26.44,18.87,33.99,26.74-7.55-7.87-7.55-10.76,0-8.68-7.55-2.09-18.88-8.11-33.99-18.06Z"/></g><g id="ad"><path d="M112.07,42.67c10.62,0,4.6-11.33-18.06-33.99l33.99,33.99h-15.93ZM112.07,42.67c-17.83,0-26.74-11.33-26.74-33.99v33.99h26.74ZM85.33,8.68c0-5.78,2.89-5.78,8.68,0L85.33,0v8.68ZM112.07,42.67c-9.96-15.11-18.87-26.44-26.74-33.99,7.87,7.55,10.76,7.55,8.68,0,2.09,7.55,8.11,18.88,18.06,33.99Z"/></g><g id="ae"><path d="M112.07,42.67c10.62,0,4.6,11.33-18.06,33.99l33.99-33.99h-15.93ZM112.07,42.67c-17.83,0-26.74,11.33-26.74,33.99v-33.99h26.74ZM85.33,76.66c0,5.78,2.89,5.78,8.68,0l-8.68,8.68v-8.68ZM112.07,42.67c-9.96,15.11-18.87,26.44-26.74,33.99,7.87-7.55,10.76-7.55,8.68,0,2.09-7.55,8.11-18.88,18.06-33.99Z"/></g><g id="af"><path d="M128,26.74c0,10.62,11.33,4.6,33.99-18.06l-33.99,33.99v-15.93ZM128,26.74c0-17.83,11.33-26.74,33.99-26.74h-33.99v26.74ZM161.99,0c5.78,0,5.78,2.89,0,8.68l8.68-8.68h-8.68ZM128,26.74c15.11-9.96,26.44-18.87,33.99-26.74-7.55,7.87-7.55,10.76,0,8.68-7.55,2.09-18.88,8.11-33.99,18.06Z"/></g><g id="ag"><path d="M128,26.74c0,10.62-11.33,4.6-33.99-18.06l33.99,33.99v-15.93ZM128,26.74c0-17.83-11.33-26.74-33.99-26.74h33.99v26.74ZM94.01,0c-5.78,0-5.78,2.89,0,8.68L85.33,0h8.68ZM128,26.74c-15.11-9.96-26.44-18.87-33.99-26.74,7.55,7.87,7.55,10.76,0,8.68,7.55,2.09,18.88,8.11,33.99,18.06Z"/></g><g id="ah"><path d="M143.93,128c-10.62,0-4.6,11.33,18.06,33.99l-33.99-33.99h15.93ZM143.93,128c17.83,0,26.74,11.33,26.74,33.99v-33.99h-26.74ZM170.67,161.99c0,5.78-2.89,5.78-8.68,0l8.68,8.68v-8.68ZM143.93,128c9.96,15.11,18.87,26.44,26.74,33.99-7.87-7.55-10.76-7.55-8.68,0-2.09-7.55-8.11-18.88-18.06-33.99Z"/></g><g id="ai"><path d="M143.93,128c-10.62,0-4.6-11.33,18.06-33.99l-33.99,33.99h15.93ZM143.93,128c17.83,0,26.74-11.33,26.74-33.99v33.99h-26.74ZM170.67,94.01c0-5.78-2.89-5.78-8.68,0l8.68-8.68v8.68ZM143.93,128c9.96-15.11,18.87-26.44,26.74-33.99-7.87,7.55-10.76,7.55-8.68,0-2.09,7.55-8.11,18.88-18.06,33.99Z"/></g><g id="aj"><path d="M128,143.93c0-10.62-11.33-4.6-33.99,18.06l33.99-33.99v15.93ZM128,143.93c0,17.83-11.33,26.74-33.99,26.74h33.99v-26.74ZM94.01,170.67c-5.78,0-5.78-2.89,0-8.68l-8.68,8.68h8.68ZM128,143.93c-15.11,9.96-26.44,18.87-33.99,26.74,7.55-7.87,7.55-10.76,0-8.68,7.55-2.09,18.88-8.11,33.99-18.06Z"/></g><g id="ak"><path d="M128,143.93c0-10.62,11.33-4.6,33.99,18.06l-33.99-33.99v15.93ZM128,143.93c0,17.83,11.33,26.74,33.99,26.74h-33.99v-26.74ZM161.99,170.67c5.78,0,5.78-2.89,0-8.68l8.68,8.68h-8.68ZM128,143.93c15.11,9.96,26.44,18.87,33.99,26.74-7.55-7.87-7.55-10.76,0-8.68-7.55-2.09-18.88-8.11-33.99-18.06Z"/></g><g id="al"><path d="M112.07,128c10.62,0,4.6-11.33-18.06-33.99l33.99,33.99h-15.93ZM112.07,128c-17.83,0-26.74-11.33-26.74-33.99v33.99h26.74ZM85.33,94.01c0-5.78,2.89-5.78,8.68,0l-8.68-8.68v8.68ZM112.07,128c-9.96-15.11-18.87-26.44-26.74-33.99,7.87,7.55,10.76,7.55,8.68,0,2.09,7.55,8.11,18.88,18.06,33.99Z"/></g><g id="am"><path d="M112.07,128c10.62,0,4.6,11.33-18.06,33.99l33.99-33.99h-15.93ZM112.07,128c-17.83,0-26.74,11.33-26.74,33.99v-33.99h26.74ZM85.33,161.99c0,5.78,2.89,5.78,8.68,0l-8.68,8.68v-8.68ZM112.07,128c-9.96,15.11-18.87,26.44-26.74,33.99,7.87-7.55,10.76-7.55,8.68,0,2.09-7.55,8.11-18.88,18.06-33.99Z"/></g><g id="an"><path d="M128,112.07c0,10.62,11.33,4.6,33.99-18.06l-33.99,33.99v-15.93ZM128,112.07c0-17.83,11.33-26.74,33.99-26.74h-33.99v26.74ZM161.99,85.33c5.78,0,5.78,2.89,0,8.68l8.68-8.68h-8.68ZM128,112.07c15.11-9.96,26.44-18.87,33.99-26.74-7.55,7.87-7.55,10.76,0,8.68-7.55,2.09-18.88,8.11-33.99,18.06Z"/></g><g id="ao"><path d="M128,112.07c0,10.62-11.33,4.6-33.99-18.06l33.99,33.99v-15.93ZM128,112.07c0-17.83-11.33-26.74-33.99-26.74h33.99v26.74ZM94.01,85.33c-5.78,0-5.78,2.89,0,8.68l-8.68-8.68h8.68ZM128,112.07c-15.11-9.96-26.44-18.87-33.99-26.74,7.55,7.87,7.55,10.76,0,8.68,7.55,2.09,18.88,8.11,33.99,18.06Z"/></g><g id="ap"><path d="M143.93,213.33c-10.62,0-4.6,11.33,18.06,33.99l-33.99-33.99h15.93ZM143.93,213.33c17.83,0,26.74,11.33,26.74,33.99v-33.99h-26.74ZM170.67,247.32c0,5.78-2.89,5.78-8.68,0l8.68,8.68v-8.68ZM143.93,213.33c9.96,15.11,18.87,26.44,26.74,33.99-7.87-7.55-10.76-7.55-8.68,0-2.09-7.55-8.11-18.88-18.06-33.99Z"/></g><g id="aq"><path d="M143.93,213.33c-10.62,0-4.6-11.33,18.06-33.99l-33.99,33.99h15.93ZM143.93,213.33c17.83,0,26.74-11.33,26.74-33.99v33.99h-26.74ZM170.67,179.34c0-5.78-2.89-5.78-8.68,0l8.68-8.68v8.68ZM143.93,213.33c9.96-15.11,18.87-26.44,26.74-33.99-7.87,7.55-10.76,7.55-8.68,0-2.09,7.55-8.11,18.88-18.06,33.99Z"/></g><g id="ar"><path d="M128,229.26c0-10.62-11.33-4.6-33.99,18.06l33.99-33.99v15.93ZM128,229.26c0,17.83-11.33,26.74-33.99,26.74h33.99v-26.74ZM94.01,256c-5.78,0-5.78-2.89,0-8.68l-8.68,8.68h8.68ZM128,229.26c-15.11,9.96-26.44,18.87-33.99,26.74,7.55-7.87,7.55-10.76,0-8.68,7.55-2.09,18.88-8.11,33.99-18.06Z"/></g><g id="as"><path d="M128,229.26c0-10.62,11.33-4.6,33.99,18.06l-33.99-33.99v15.93ZM128,229.26c0,17.83,11.33,26.74,33.99,26.74h-33.99v-26.74ZM161.99,256c5.78,0,5.78-2.89,0-8.68l8.68,8.68h-8.68ZM128,229.26c15.11,9.96,26.44,18.87,33.99,26.74-7.55-7.87-7.55-10.76,0-8.68-7.55-2.09-18.88-8.11-33.99-18.06Z"/></g><g id="at"><path d="M112.07,213.33c10.62,0,4.6-11.33-18.06-33.99l33.99,33.99h-15.93ZM112.07,213.33c-17.83,0-26.74-11.33-26.74-33.99v33.99h26.74ZM85.33,179.34c0-5.78,2.89-5.78,8.68,0l-8.68-8.68v8.68ZM112.07,213.33c-9.96-15.11-18.87-26.44-26.74-33.99,7.87,7.55,10.76,7.55,8.68,0,2.09,7.55,8.11,18.88,18.06,33.99Z"/></g><g id="au"><path d="M112.07,213.33c10.62,0,4.6,11.33-18.06,33.99l33.99-33.99h-15.93ZM112.07,213.33c-17.83,0-26.74,11.33-26.74,33.99v-33.99h26.74ZM85.33,247.32c0,5.78,2.89,5.78,8.68,0l-8.68,8.68v-8.68ZM112.07,213.33c-9.96,15.11-18.87,26.44-26.74,33.99,7.87-7.55,10.76-7.55,8.68,0,2.09-7.55,8.11-18.88,18.06-33.99Z"/></g><g id="av"><path d="M128,197.4c0,10.62,11.33,4.6,33.99-18.06l-33.99,33.99v-15.93ZM128,197.4c0-17.83,11.33-26.74,33.99-26.74h-33.99v26.74ZM161.99,170.67c5.78,0,5.78,2.89,0,8.68l8.68-8.68h-8.68ZM128,197.4c15.11-9.96,26.44-18.87,33.99-26.74-7.55,7.87-7.55,10.76,0,8.68-7.55,2.09-18.88,8.11-33.99,18.06Z"/></g><g id="aw"><path d="M128,197.4c0,10.62-11.33,4.6-33.99-18.06l33.99,33.99v-15.93ZM128,197.4c0-17.83-11.33-26.74-33.99-26.74h33.99v26.74ZM94.01,170.67c-5.78,0-5.78,2.89,0,8.68l-8.68-8.68h8.68ZM128,197.4c-15.11-9.96-26.44-18.87-33.99-26.74,7.55,7.87,7.55,10.76,0,8.68,7.55,2.09,18.88,8.11,33.99,18.06Z"/></g><g id="ax"><path d="M229.26,42.67c-10.62,0-4.6,11.33,18.06,33.99l-33.99-33.99h15.93ZM229.26,42.67c17.83,0,26.74,11.33,26.74,33.99v-33.99h-26.74ZM256,76.66c0,5.78-2.89,5.78-8.68,0l8.68,8.68v-8.68ZM229.26,42.67c9.96,15.11,18.87,26.44,26.74,33.99-7.87-7.55-10.76-7.55-8.68,0-2.09-7.55-8.11-18.88-18.06-33.99Z"/></g><g id="ay"><path d="M229.26,42.67c-10.62,0-4.6-11.33,18.06-33.99l-33.99,33.99h15.93ZM229.26,42.67c17.83,0,26.74-11.33,26.74-33.99v33.99h-26.74ZM256,8.68c0-5.78-2.89-5.78-8.68,0l8.68-8.68v8.68ZM229.26,42.67c9.96-15.11,18.87-26.44,26.74-33.99-7.87,7.55-10.76,7.55-8.68,0-2.09,7.55-8.11,18.88-18.06,33.99Z"/></g><g id="az"><path d="M213.33,58.6c0-10.62-11.33-4.6-33.99,18.06l33.99-33.99v15.93ZM213.33,58.6c0,17.83-11.33,26.74-33.99,26.74h33.99v-26.74ZM179.34,85.33c-5.78,0-5.78-2.89,0-8.68l-8.68,8.68h8.68ZM213.33,58.6c-15.11,9.96-26.44,18.87-33.99,26.74,7.55-7.87,7.55-10.76,0-8.68,7.55-2.09,18.88-8.11,33.99-18.06Z"/></g><g id="ba"><path d="M213.33,58.6c0-10.62,11.33-4.6,33.99,18.06l-33.99-33.99v15.93ZM213.33,58.6c0,17.83,11.33,26.74,33.99,26.74h-33.99v-26.74ZM247.32,85.33c5.78,0,5.78-2.89,0-8.68l8.68,8.68h-8.68ZM213.33,58.6c15.11,9.96,26.44,18.87,33.99,26.74-7.55-7.87-7.55-10.76,0-8.68-7.55-2.09-18.88-8.11-33.99-18.06Z"/></g><g id="bb"><path d="M197.4,42.67c10.62,0,4.6-11.33-18.06-33.99l33.99,33.99h-15.93ZM197.4,42.67c-17.83,0-26.74-11.33-26.74-33.99v33.99h26.74ZM170.67,8.68c0-5.78,2.89-5.78,8.68,0l-8.68-8.68v8.68ZM197.4,42.67c-9.96-15.11-18.87-26.44-26.74-33.99,7.87,7.55,10.76,7.55,8.68,0,2.09,7.55,8.11,18.88,18.06,33.99Z"/></g><g id="bc"><path d="M197.4,42.67c10.62,0,4.6,11.33-18.06,33.99l33.99-33.99h-15.93ZM197.4,42.67c-17.83,0-26.74,11.33-26.74,33.99v-33.99h26.74ZM170.67,76.66c0,5.78,2.89,5.78,8.68,0l-8.68,8.68v-8.68ZM197.4,42.67c-9.96,15.11-18.87,26.44-26.74,33.99,7.87-7.55,10.76-7.55,8.68,0,2.09-7.55,8.11-18.88,18.06-33.99Z"/></g><g id="bd"><path d="M213.33,26.74c0,10.62,11.33,4.6,33.99-18.06l-33.99,33.99v-15.93ZM213.33,26.74c0-17.83,11.33-26.74,33.99-26.74h-33.99v26.74ZM247.32,0c5.78,0,5.78,2.89,0,8.68l8.68-8.68h-8.68ZM213.33,26.74c15.11-9.96,26.44-18.87,33.99-26.74-7.55,7.87-7.55,10.76,0,8.68-7.55,2.09-18.88,8.11-33.99,18.06Z"/></g><g id="be"><path d="M213.33,26.74c0,10.62-11.33,4.6-33.99-18.06l33.99,33.99v-15.93ZM213.33,26.74c0-17.83-11.33-26.74-33.99-26.74h33.99v26.74ZM179.34,0c-5.78,0-5.78,2.89,0,8.68l-8.68-8.68h8.68ZM213.33,26.74c-15.11-9.96-26.44-18.87-33.99-26.74,7.55,7.87,7.55,10.76,0,8.68,7.55,2.09,18.88,8.11,33.99,18.06Z"/></g><g id="bf"><path d="M229.26,128c-10.62,0-4.6,11.33,18.06,33.99l-33.99-33.99h15.93ZM229.26,128c17.83,0,26.74,11.33,26.74,33.99v-33.99h-26.74ZM256,161.99c0,5.78-2.89,5.78-8.68,0l8.68,8.68v-8.68ZM229.26,128c9.96,15.11,18.87,26.44,26.74,33.99-7.87-7.55-10.76-7.55-8.68,0-2.09-7.55-8.11-18.88-18.06-33.99Z"/></g><g id="bg"><path d="M229.26,128c-10.62,0-4.6-11.33,18.06-33.99l-33.99,33.99h15.93ZM229.26,128c17.83,0,26.74-11.33,26.74-33.99v33.99h-26.74ZM256,94.01c0-5.78-2.89-5.78-8.68,0l8.68-8.68v8.68ZM229.26,128c9.96-15.11,18.87-26.44,26.74-33.99-7.87,7.55-10.76,7.55-8.68,0-2.09,7.55-8.11,18.88-18.06,33.99Z"/></g><g id="bh"><path d="M213.33,143.93c0-10.62-11.33-4.6-33.99,18.06l33.99-33.99v15.93ZM213.33,143.93c0,17.83-11.33,26.74-33.99,26.74h33.99v-26.74ZM179.34,170.67c-5.78,0-5.78-2.89,0-8.68l-8.68,8.68h8.68ZM213.33,143.93c-15.11,9.96-26.44,18.87-33.99,26.74,7.55-7.87,7.55-10.76,0-8.68,7.55-2.09,18.88-8.11,33.99-18.06Z"/></g><g id="bi"><path d="M213.33,143.93c0-10.62,11.33-4.6,33.99,18.06l-33.99-33.99v15.93ZM213.33,143.93c0,17.83,11.33,26.74,33.99,26.74h-33.99v-26.74ZM247.32,170.67c5.78,0,5.78-2.89,0-8.68l8.68,8.68h-8.68ZM213.33,143.93c15.11,9.96,26.44,18.87,33.99,26.74-7.55-7.87-7.55-10.76,0-8.68-7.55-2.09-18.88-8.11-33.99-18.06Z"/></g><g id="bj"><path d="M197.4,128c10.62,0,4.6-11.33-18.06-33.99l33.99,33.99h-15.93ZM197.4,128c-17.83,0-26.74-11.33-26.74-33.99v33.99h26.74ZM170.67,94.01c0-5.78,2.89-5.78,8.68,0l-8.68-8.68v8.68ZM197.4,128c-9.96-15.11-18.87-26.44-26.74-33.99,7.87,7.55,10.76,7.55,8.68,0,2.09,7.55,8.11,18.88,18.06,33.99Z"/></g><g id="bk"><path d="M197.4,128c10.62,0,4.6,11.33-18.06,33.99l33.99-33.99h-15.93ZM197.4,128c-17.83,0-26.74,11.33-26.74,33.99v-33.99h26.74ZM170.67,161.99c0,5.78,2.89,5.78,8.68,0l-8.68,8.68v-8.68ZM197.4,128c-9.96,15.11-18.87,26.44-26.74,33.99,7.87-7.55,10.76-7.55,8.68,0,2.09-7.55,8.11-18.88,18.06-33.99Z"/></g><g id="bl"><path d="M213.33,112.07c0,10.62,11.33,4.6,33.99-18.06l-33.99,33.99v-15.93ZM213.33,112.07c0-17.83,11.33-26.74,33.99-26.74h-33.99v26.74ZM247.32,85.33c5.78,0,5.78,2.89,0,8.68l8.68-8.68h-8.68ZM213.33,112.07c15.11-9.96,26.44-18.87,33.99-26.74-7.55,7.87-7.55,10.76,0,8.68-7.55,2.09-18.88,8.11-33.99,18.06Z"/></g><g id="bm"><path d="M213.33,112.07c0,10.62-11.33,4.6-33.99-18.06l33.99,33.99v-15.93ZM213.33,112.07c0-17.83-11.33-26.74-33.99-26.74h33.99v26.74ZM179.34,85.33c-5.78,0-5.78,2.89,0,8.68l-8.68-8.68h8.68ZM213.33,112.07c-15.11-9.96-26.44-18.87-33.99-26.74,7.55,7.87,7.55,10.76,0,8.68,7.55,2.09,18.88,8.11,33.99,18.06Z"/></g><g id="bn"><path d="M229.26,213.33c-10.62,0-4.6,11.33,18.06,33.99l-33.99-33.99h15.93ZM229.26,213.33c17.83,0,26.74,11.33,26.74,33.99v-33.99h-26.74ZM256,247.32c0,5.78-2.89,5.78-8.68,0l8.68,8.68v-8.68ZM229.26,213.33c9.96,15.11,18.87,26.44,26.74,33.99-7.87-7.55-10.76-7.55-8.68,0-2.09-7.55-8.11-18.88-18.06-33.99Z"/></g><g id="bo"><path d="M229.26,213.33c-10.62,0-4.6-11.33,18.06-33.99l-33.99,33.99h15.93ZM229.26,213.33c17.83,0,26.74-11.33,26.74-33.99v33.99h-26.74ZM256,179.34c0-5.78-2.89-5.78-8.68,0l8.68-8.68v8.68ZM229.26,213.33c9.96-15.11,18.87-26.44,26.74-33.99-7.87,7.55-10.76,7.55-8.68,0-2.09,7.55-8.11,18.88-18.06,33.99Z"/></g><g id="bp"><path d="M213.33,229.26c0-10.62-11.33-4.6-33.99,18.06l33.99-33.99v15.93ZM213.33,229.26c0,17.83-11.33,26.74-33.99,26.74h33.99v-26.74ZM179.34,256c-5.78,0-5.78-2.89,0-8.68l-8.68,8.68h8.68ZM213.33,229.26c-15.11,9.96-26.44,18.87-33.99,26.74,7.55-7.87,7.55-10.76,0-8.68,7.55-2.09,18.88-8.11,33.99-18.06Z"/></g><g id="bq"><path d="M213.33,229.26c0-10.62,11.33-4.6,33.99,18.06l-33.99-33.99v15.93ZM213.33,229.26c0,17.83,11.33,26.74,33.99,26.74h-33.99v-26.74ZM247.32,256c5.78,0,5.78-2.89,0-8.68l8.68,8.68h-8.68ZM213.33,229.26c15.11,9.96,26.44,18.87,33.99,26.74-7.55-7.87-7.55-10.76,0-8.68-7.55-2.09-18.88-8.11-33.99-18.06Z"/></g><g id="br"><path d="M197.4,213.33c10.62,0,4.6-11.33-18.06-33.99l33.99,33.99h-15.93ZM197.4,213.33c-17.83,0-26.74-11.33-26.74-33.99v33.99h26.74ZM170.67,179.34c0-5.78,2.89-5.78,8.68,0l-8.68-8.68v8.68ZM197.4,213.33c-9.96-15.11-18.87-26.44-26.74-33.99,7.87,7.55,10.76,7.55,8.68,0,2.09,7.55,8.11,18.88,18.06,33.99Z"/></g><g id="bs"><path d="M197.4,213.33c10.62,0,4.6,11.33-18.06,33.99l33.99-33.99h-15.93ZM197.4,213.33c-17.83,0-26.74,11.33-26.74,33.99v-33.99h26.74ZM170.67,247.32c0,5.78,2.89,5.78,8.68,0l-8.68,8.68v-8.68ZM197.4,213.33c-9.96,15.11-18.87,26.44-26.74,33.99,7.87-7.55,10.76-7.55,8.68,0,2.09-7.55,8.11-18.88,18.06-33.99Z"/></g><g id="bt"><path d="M213.33,197.4c0,10.62,11.33,4.6,33.99-18.06l-33.99,33.99v-15.93ZM213.33,197.4c0-17.83,11.33-26.74,33.99-26.74h-33.99v26.74ZM247.32,170.67c5.78,0,5.78,2.89,0,8.68l8.68-8.68h-8.68ZM213.33,197.4c15.11-9.96,26.44-18.87,33.99-26.74-7.55,7.87-7.55,10.76,0,8.68-7.55,2.09-18.88,8.11-33.99,18.06Z"/></g><g id="bu"><path d="M213.33,197.4c0,10.62-11.33,4.6-33.99-18.06l33.99,33.99v-15.93ZM213.33,197.4c0-17.83-11.33-26.74-33.99-26.74h33.99v26.74ZM179.34,170.67c-5.78,0-5.78,2.89,0,8.68l-8.68-8.68h8.68ZM213.33,197.4c-15.11-9.96-26.44-18.87-33.99-26.74,7.55,7.87,7.55,10.76,0,8.68,7.55,2.09,18.88,8.11,33.99,18.06Z"/></g></svg>