<?xml version="1.0" encoding="UTF-8"?><svg id="a" xmlns="http://www.w3.org/2000/svg" xmlns:xlink="http://www.w3.org/1999/xlink" fill="#fdba74" viewBox="0 0 256 256"><defs><pattern id="b" x="0" y="0" width="400" height="400" patternTransform="translate(-3072 -2816) scale(.64)" patternUnits="userSpaceOnUse" viewBox="0 0 400 400"><rect width="400" height="400" style="fill:none; stroke-width:0px;"/><rect y="55.5" width="400" height="10.52"/><rect y="122.3" width="400" height="10.52"/><rect y="189.09" width="400" height="10.52"/><rect y="255.89" width="400" height="10.52"/><rect y="322.68" width="400" height="10.52"/><rect y="389.48" width="400" height="10.52"/><path d="M7.36,27.36c0-4.07-3.29-7.37-7.36-7.37v14.74c4.06,0,7.36-3.3,7.36-7.37Z"/><ellipse cx="50" cy="27.36" rx="7.36" ry="7.37"/><ellipse cx="100" cy="27.36" rx="7.36" ry="7.37"/><ellipse cx="150" cy="27.36" rx="7.36" ry="7.37"/><ellipse cx="200" cy="27.36" rx="7.36" ry="7.37"/><ellipse cx="250" cy="27.36" rx="7.36" ry="7.37"/><ellipse cx="300" cy="27.36" rx="7.36" ry="7.37"/><ellipse cx="350" cy="27.36" rx="7.36" ry="7.37"/><path d="M392.64,27.36c0,4.07,3.29,7.37,7.36,7.37v-14.74c-4.06,0-7.36,3.3-7.36,7.37Z"/><polygon points="8.49 101.53 0 86.79 0 101.53 8.49 101.53"/><polygon points="41.51 86.79 50 101.53 58.49 86.79 41.51 86.79"/><polygon points="91.51 101.53 108.49 101.53 100 86.79 91.51 101.53"/><polygon points="141.51 86.79 150 101.53 158.49 86.79 141.51 86.79"/><polygon points="191.51 101.53 208.49 101.53 200 86.79 191.51 101.53"/><polygon points="241.51 86.79 250 101.53 258.49 86.79 241.51 86.79"/><polygon points="291.51 101.53 308.49 101.53 300 86.79 291.51 101.53"/><polygon points="350 101.53 358.49 86.79 341.51 86.79 350 101.53"/><polygon points="391.51 101.53 400 101.53 400 86.79 391.51 101.53"/><rect y="152.92" width="7.36" height="14.74"/><rect x="42.65" y="152.92" width="14.71" height="14.74"/><rect x="92.65" y="152.92" width="14.71" height="14.74"/><rect x="142.65" y="152.92" width="14.71" height="14.74"/><rect x="192.65" y="152.92" width="14.71" height="14.74"/><rect x="242.65" y="152.92" width="14.71" height="14.74"/><rect x="292.65" y="152.92" width="14.71" height="14.74"/><rect x="342.65" y="152.92" width="14.71" height="14.74"/><rect x="392.65" y="152.92" width="7.35" height="14.74"/><path d="M7.36,228.08c0-4.07-3.29-7.37-7.36-7.37v14.74c4.06,0,7.36-3.3,7.36-7.37Z"/><ellipse cx="50" cy="228.08" rx="7.36" ry="7.37"/><ellipse cx="100" cy="228.08" rx="7.36" ry="7.37"/><ellipse cx="150" cy="228.08" rx="7.36" ry="7.37"/><ellipse cx="200" cy="228.08" rx="7.36" ry="7.37"/><ellipse cx="250" cy="228.08" rx="7.36" ry="7.37"/><ellipse cx="300" cy="228.08" rx="7.36" ry="7.37"/><ellipse cx="350" cy="228.08" rx="7.36" ry="7.37"/><path d="M392.64,228.08c0,4.07,3.29,7.37,7.36,7.37v-14.74c-4.06,0-7.36,3.3-7.36,7.37Z"/><polygon points="8.49 302.25 0 287.51 0 302.25 8.49 302.25"/><polygon points="58.49 287.51 41.51 287.51 50 302.25 58.49 287.51"/><polygon points="108.49 302.25 100 287.51 91.51 302.25 108.49 302.25"/><polygon points="158.49 287.51 141.51 287.51 150 302.25 158.49 287.51"/><polygon points="208.49 302.25 200 287.51 191.51 302.25 208.49 302.25"/><polygon points="258.49 287.51 241.51 287.51 250 302.25 258.49 287.51"/><polygon points="308.49 302.25 300 287.51 291.51 302.25 308.49 302.25"/><polygon points="358.49 287.51 341.51 287.51 350 302.25 358.49 287.51"/><polygon points="400 302.25 400 287.51 391.51 302.25 400 302.25"/><rect x="0" y="353.64" width="7.36" height="14.74"/><rect x="42.65" y="353.64" width="14.71" height="14.74"/><rect x="92.65" y="353.64" width="14.71" height="14.74"/><rect x="142.65" y="353.64" width="14.71" height="14.74"/><rect x="192.65" y="353.64" width="14.71" height="14.74"/><rect x="242.65" y="353.64" width="14.71" height="14.74"/><rect x="292.65" y="353.64" width="14.71" height="14.74"/><rect x="342.65" y="353.64" width="14.71" height="14.74"/><rect x="392.65" y="353.64" width="7.35" height="14.74"/></pattern></defs><rect width="256" height="256" style="fill:url(#b); stroke-width:0px;"/></svg>