<svg width="65" height="20" viewBox="0 0 65 20" fill="none" xmlns="http://www.w3.org/2000/svg">
<g clip-path="url(#clip0_90_80)">
<path d="M8.25418 1.75H3.31161C2.99478 1.75 2.67794 2 2.61458 2.3125L0.650221 14.8125C0.586854 15.0625 0.776953 15.25 1.03042 15.25H3.37497C3.69181 15.25 4.00864 15 4.072 14.6875L4.57893 11.3125C4.6423 11 4.89577 10.75 5.27596 10.75H6.86012C10.0918 10.75 11.9928 9.1875 12.4997 6.125C12.6898 4.8125 12.4997 3.75 11.8661 3C11.169 2.1875 9.90171 1.75 8.25418 1.75ZM8.82448 6.3125C8.57101 8.0625 7.17695 8.0625 5.90963 8.0625H5.14923L5.65616 4.8125C5.65616 4.625 5.84626 4.5 6.03636 4.5H6.35319C7.24032 4.5 8.06408 4.5 8.50765 5C8.82448 5.25 8.95121 5.6875 8.82448 6.3125Z" fill="#003087"/>
<path d="M22.9552 6.25H20.6106C20.4205 6.25 20.2304 6.375 20.2304 6.5625L20.1037 7.1875L19.9136 6.9375C19.4067 6.1875 18.2661 5.9375 17.1255 5.9375C14.5275 5.9375 12.3096 7.875 11.8661 10.625C11.6126 12 11.9294 13.3125 12.7532 14.1875C13.4502 15 14.5275 15.375 15.7314 15.375C17.8225 15.375 19.0265 14.0625 19.0265 14.0625L18.8997 14.6875C18.8364 14.9375 19.0265 15.1875 19.2799 15.1875H21.4344C21.7512 15.1875 22.0681 14.9375 22.1314 14.625L23.3988 6.625C23.4621 6.5 23.2087 6.25 22.9552 6.25ZM19.7235 10.75C19.47 12.0625 18.4562 13 17.0621 13C16.3651 13 15.8582 12.8125 15.478 12.375C15.0978 11.9375 14.971 11.375 15.0978 10.75C15.2879 9.4375 16.4285 8.5 17.7591 8.5C18.4562 8.5 18.9631 8.75 19.3433 9.125C19.6601 9.5625 19.7869 10.125 19.7235 10.75Z" fill="#003087"/>
<path d="M35.5651 6.25H33.2205C32.967 6.25 32.7769 6.375 32.6502 6.5625L29.3552 11.3125L27.9611 6.75C27.8977 6.4375 27.5809 6.25 27.3274 6.25H24.9829C24.7294 6.25 24.4759 6.5 24.6027 6.8125L27.2007 14.375L24.7294 17.75C24.5393 18 24.7294 18.375 25.0462 18.375H27.3908C27.6443 18.375 27.8344 18.25 27.9611 18.0625L35.8819 6.8125C36.072 6.625 35.8819 6.25 35.5651 6.25Z" fill="#003087"/>
<path d="M43.4224 1.75H38.4798C38.163 1.75 37.8462 2 37.7828 2.3125L35.8184 14.75C35.7551 15 35.9452 15.1875 36.1986 15.1875H38.7333C38.9868 15.1875 39.1768 15 39.1768 14.8125L39.7471 11.25C39.8105 10.9375 40.064 10.6875 40.4442 10.6875H42.0283C45.26 10.6875 47.161 9.125 47.6679 6.0625C47.858 4.75 47.6679 3.6875 47.0343 2.9375C46.2739 2.1875 45.0699 1.75 43.4224 1.75ZM43.9927 6.3125C43.7392 8.0625 42.3452 8.0625 41.0778 8.0625H40.3174L40.8244 4.8125C40.8244 4.625 41.0145 4.5 41.2046 4.5H41.5214C42.4085 4.5 43.2323 4.5 43.6759 5C43.9927 5.25 44.0561 5.6875 43.9927 6.3125Z" fill="#009CDE"/>
<path d="M58.1234 6.25H55.7789C55.5888 6.25 55.3987 6.375 55.3987 6.5625L55.2719 7.1875L55.0818 6.9375C54.5749 6.1875 53.4343 5.9375 52.2937 5.9375C49.6957 5.9375 47.4779 7.875 47.0343 10.625C46.7808 12 47.0977 13.3125 47.9214 14.1875C48.6185 15 49.6957 15.375 50.8996 15.375C52.9907 15.375 54.1947 14.0625 54.1947 14.0625L54.068 14.6875C54.0046 14.9375 54.1947 15.1875 54.4482 15.1875H56.6026C56.9194 15.1875 57.2363 14.9375 57.2996 14.625L58.567 6.625C58.567 6.5 58.3769 6.25 58.1234 6.25ZM54.8284 10.75C54.5749 12.0625 53.561 13 52.167 13C51.4699 13 50.963 12.8125 50.5828 12.375C50.2026 11.9375 50.0759 11.375 50.2026 10.75C50.3927 9.4375 51.5333 8.5 52.864 8.5C53.561 8.5 54.068 8.75 54.4482 9.125C54.8284 9.5625 54.9551 10.125 54.8284 10.75Z" fill="#009CDE"/>
<path d="M60.9116 2.0625L58.8839 14.75C58.8205 15 59.0106 15.1875 59.2641 15.1875H61.2918C61.6086 15.1875 61.9254 14.9375 61.9888 14.625L64.0165 2.1875C64.0799 1.9375 63.8898 1.75 63.6363 1.75H61.3552C61.1017 1.75 60.975 1.875 60.9116 2.0625Z" fill="#009CDE"/>
</g>
<defs>
<clipPath id="clip0_90_80">
<rect width="64" height="20" fill="white" transform="translate(0.5)"/>
</clipPath>
</defs>
</svg>
